<svg xmlns="http://www.w3.org/2000/svg" viewBox="0 0 635.1 141.3"><defs><style>.cls-1{fill:#c7ab97;}.cls-2{fill:#fff;}</style></defs><g id="圖層_2" data-name="圖層 2"><path class="cls-1" d="M.41,95.72C-.4,77.05,8.67,59,21.59,45.48S51,22.52,67.76,14.22C81.07,7.62,95,1.55,109.81.24S140.57,3,150.49,14.11c7.6,8.48,10.87,20,12.54,31.25,2.53,17.06,1.79,35.12-5.75,50.63-14.84,30.54-51.88,43.66-85.8,45.15-15.21.67-31-.53-44.53-7.52S.16,110.94.41,95.72"/><path class="cls-2" d="M235.61,95.72c-.81-18.67,8.26-36.75,21.18-50.24s29.43-23,46.17-31.26c13.31-6.6,27.25-12.67,42-14S375.77,3,385.69,14.11c7.6,8.48,10.87,20,12.54,31.25C400.76,62.42,400,80.48,392.48,96c-14.84,30.54-51.88,43.66-85.8,45.15-15.22.67-31-.53-44.53-7.52s-26.79-22.68-26.54-37.9"/><path d="M470.81,95.72C470,77.05,479.07,59,492,45.48s29.43-23,46.17-31.26c13.31-6.6,27.24-12.67,42-14S611,3,620.89,14.11c7.6,8.48,10.87,20,12.54,31.25C636,62.42,635.22,80.48,627.68,96c-14.84,30.54-51.88,43.66-85.8,45.15-15.22.67-31-.53-44.53-7.52s-26.79-22.68-26.54-37.9"/></g></svg>