<svg xmlns="http://www.w3.org/2000/svg" viewBox="0 0 72 72"><defs><style>.cls-1{fill:#f2844e;}.cls-2{fill:#f8f6f4;}</style></defs><g id="圖層_2" data-name="圖層 2"><rect class="cls-1" width="72" height="72" rx="18.95"/><g id="f7HyGX.tif"><path class="cls-2" d="M27,53.08l-2.61-1.55c-3.57-2.13-7.14-4.27-10.73-6.39a1.89,1.89,0,0,1-1-1.81q0-13.92,0-27.85a2.68,2.68,0,0,1,.1-.85,1.37,1.37,0,0,1,1.79-.87,2.41,2.41,0,0,1,.51.25q5.79,3.45,11.59,6.89a.68.68,0,0,1,.38.67q0,15.49,0,31Z"/><path class="cls-2" d="M41.39,14.31v.61c0,7.69,0,15.37,0,23.06A1.76,1.76,0,0,1,41,39.1a12.46,12.46,0,0,0-2.49,7.34,1.8,1.8,0,0,0,0,.57c.22.7-.12,1-.7,1.35-2.52,1.46-5,3-7.52,4.45l-.46.25v-.57q0-15.42,0-30.85a.78.78,0,0,1,.44-.78q5.3-3.12,10.58-6.28Z"/><path class="cls-2" d="M51.36,36.54a10.09,10.09,0,0,1,10,10.68,9.77,9.77,0,0,1-1.92,5.23c-2.22,3-4.43,6-6.64,9-.08.1-.15.21-.23.3a1.4,1.4,0,0,1-2.34,0c-2.37-3.18-4.82-6.3-7.05-9.56a9.91,9.91,0,0,1,5.12-15.1,7.15,7.15,0,0,1,1.19-.3C50.1,36.67,50.73,36.62,51.36,36.54Zm0,5.75a4.28,4.28,0,1,0,4.3,4.24A4.32,4.32,0,0,0,51.35,42.29Z"/><path class="cls-2" d="M58.5,35.86a13,13,0,0,0-14.24,0V14.32l.48.26c4.25,2.55,8.49,5.11,12.74,7.64a1.87,1.87,0,0,1,1,1.81c0,3.77,0,7.54,0,11.31Z"/></g></g></svg>